<?xml version="1.0" encoding="utf-8"?>
<!-- Generator: Adobe Illustrator 23.0.1, SVG Export Plug-In . SVG Version: 6.00 Build 0)  -->
<svg version="1.1" id="Layer_1" xmlns="http://www.w3.org/2000/svg" xmlns:xlink="http://www.w3.org/1999/xlink" x="0px" y="0px"
	 viewBox="0 0 17 17" style="enable-background:new 0 0 17 17;" xml:space="preserve">
<style type="text/css">
	.st0{fill:#FFFFFF;}
</style>
<g>
	<g>
		<path class="st0" d="M12.87,3.02c-0.55,0-1,0.45-1,1c0,0.55,0.45,1,1,1c0.55,0,1-0.45,1-1C13.87,3.47,13.42,3.02,12.87,3.02z"/>
		<path class="st0" d="M8.44,4.3c-2.31,0-4.19,1.88-4.19,4.19c0,2.31,1.88,4.19,4.19,4.19c2.31,0,4.19-1.88,4.19-4.19
			C12.63,6.18,10.75,4.3,8.44,4.3z M8.44,11.17c-1.48,0-2.68-1.2-2.68-2.68s1.2-2.68,2.68-2.68c1.48,0,2.68,1.2,2.68,2.68
			S9.92,11.17,8.44,11.17z"/>
		<path class="st0" d="M11.77,16.99H4.98c-2.82,0-5.11-2.29-5.11-5.11V5.09c0-2.82,2.29-5.11,5.11-5.11h6.79
			c2.82,0,5.11,2.29,5.11,5.11v6.79C16.87,14.7,14.58,16.99,11.77,16.99z M4.98,1.59c-1.93,0-3.51,1.57-3.51,3.51v6.79
			c0,1.93,1.57,3.51,3.51,3.51h6.79c1.93,0,3.51-1.57,3.51-3.51V5.09c0-1.93-1.57-3.51-3.51-3.51H4.98z"/>
	</g>
</g>
</svg>
