<?xml version="1.0" encoding="utf-8"?>
<!-- Generator: Adobe Illustrator 23.0.1, SVG Export Plug-In . SVG Version: 6.00 Build 0)  -->
<svg version="1.1" id="Layer_1" xmlns="http://www.w3.org/2000/svg" xmlns:xlink="http://www.w3.org/1999/xlink" x="0px" y="0px"
	 viewBox="0 0 17 17" style="enable-background:new 0 0 17 17;" xml:space="preserve">
<style type="text/css">
	.st0{fill:#FFFFFF;}
</style>
<path class="st0" d="M1.97,5.49H4.8v9.1H1.97V5.49z M3.39,0.97c0.91,0,1.64,0.73,1.64,1.64c0,0.9-0.73,1.64-1.64,1.64
	c-0.91,0-1.64-0.74-1.64-1.64C1.75,1.7,2.48,0.97,3.39,0.97"/>
<path class="st0" d="M6.58,5.49h2.71v1.24h0.04C9.7,6.02,10.63,5.27,12,5.27c2.86,0,3.39,1.88,3.39,4.33v4.99h-2.83v-4.42
	c0-1.06-0.02-2.41-1.47-2.41c-1.47,0-1.7,1.15-1.7,2.34v4.5H6.58V5.49z"/>
</svg>
