<?xml version="1.0" encoding="utf-8"?>
<!-- Generator: Adobe Illustrator 23.0.1, SVG Export Plug-In . SVG Version: 6.00 Build 0)  -->
<svg version="1.1" id="Layer_1" xmlns="http://www.w3.org/2000/svg" xmlns:xlink="http://www.w3.org/1999/xlink" x="0px" y="0px"
	 viewBox="0 0 52.53 52.53" style="enable-background:new 0 0 52.53 52.53;" xml:space="preserve">
<g>
	<g>
		<g>
			<path d="M51.09,41.52l-5.73-3.82l-5.09-3.39c-0.98-0.65-2.3-0.44-3.03,0.49l-3.15,4.05c-0.68,0.88-1.89,1.13-2.86,0.59
				c-2.14-1.19-4.67-2.31-10.24-7.89s-6.7-8.11-7.89-10.24c-0.54-0.97-0.28-2.19,0.59-2.86l4.05-3.15c0.93-0.73,1.15-2.05,0.49-3.03
				l-3.29-4.93l-3.92-5.88c-0.67-1-2-1.3-3.04-0.68L3.46,3.47C2.24,4.19,1.34,5.36,0.95,6.72c-1.24,4.51-1.49,14.46,14.46,30.41
				s25.9,15.7,30.41,14.46c1.36-0.39,2.53-1.29,3.25-2.51l2.71-4.52C52.4,43.52,52.09,42.18,51.09,41.52z"/>
			<path d="M29.83,8.45c8.36,0.01,15.13,6.78,15.14,15.14c0,0.49,0.4,0.89,0.89,0.89c0.49,0,0.89-0.4,0.89-0.89
				c-0.01-9.34-7.58-16.91-16.92-16.92c-0.49,0-0.89,0.4-0.89,0.89C28.94,8.05,29.34,8.45,29.83,8.45z"/>
			<path d="M29.83,13.8c5.41,0.01,9.79,4.39,9.8,9.8c0,0.49,0.4,0.89,0.89,0.89c0.49,0,0.89-0.4,0.89-0.89
				c-0.01-6.39-5.19-11.57-11.58-11.58c-0.49,0-0.89,0.4-0.89,0.89S29.34,13.8,29.83,13.8z"/>
			<path d="M29.83,19.14c2.46,0,4.45,2,4.45,4.45c0,0.49,0.4,0.89,0.89,0.89c0.49,0,0.89-0.4,0.89-0.89c0-3.44-2.79-6.23-6.23-6.23
				c-0.49,0-0.89,0.4-0.89,0.89C28.94,18.74,29.34,19.14,29.83,19.14z"/>
		</g>
	</g>
</g>
</svg>
