<?xml version="1.0" encoding="utf-8"?>
<!-- Generator: Adobe Illustrator 23.0.1, SVG Export Plug-In . SVG Version: 6.00 Build 0)  -->
<svg version="1.1" id="Layer_1" xmlns="http://www.w3.org/2000/svg" xmlns:xlink="http://www.w3.org/1999/xlink" x="0px" y="0px"
	 viewBox="0 0 17 17" style="enable-background:new 0 0 17 17;" xml:space="preserve">
<style type="text/css">
	.st0{fill:#FFFFFF;}
</style>
<path class="st0" d="M16.74,3.21c-0.51,0.23-1.07,0.37-1.61,0.46c0.26-0.04,0.64-0.51,0.79-0.7c0.23-0.29,0.43-0.62,0.54-0.98
	c0.01-0.03,0.02-0.06,0-0.08c-0.03-0.01-0.06-0.01-0.09,0.01c-0.61,0.33-1.24,0.56-1.91,0.73c-0.06,0.01-0.1,0-0.13-0.03
	c-0.06-0.06-0.11-0.12-0.17-0.17c-0.28-0.24-0.58-0.43-0.93-0.57c-0.45-0.18-0.94-0.26-1.42-0.23c-0.47,0.03-0.93,0.16-1.35,0.38
	c-0.42,0.22-0.79,0.52-1.09,0.89C9.06,3.3,8.84,3.74,8.72,4.22c-0.11,0.46-0.1,0.91-0.03,1.37c0.01,0.08,0,0.09-0.07,0.08
	c-2.63-0.39-4.8-1.33-6.57-3.34C1.97,2.24,1.93,2.24,1.87,2.33c-0.77,1.16-0.4,3.02,0.57,3.94c0.13,0.12,0.26,0.24,0.4,0.36
	C2.79,6.63,2.14,6.56,1.57,6.27C1.49,6.22,1.46,6.24,1.45,6.33c-0.01,0.13,0,0.24,0.02,0.38c0.15,1.17,0.96,2.26,2.08,2.69
	c0.13,0.06,0.28,0.1,0.42,0.13c-0.25,0.06-0.52,0.1-1.24,0.04C2.63,9.54,2.6,9.59,2.63,9.68c0.55,1.49,1.73,1.94,2.61,2.19
	c0.12,0.02,0.24,0.02,0.36,0.05c-0.01,0.01-0.01,0.01-0.02,0.02c-0.29,0.45-1.31,0.78-1.78,0.95c-0.86,0.3-1.8,0.44-2.71,0.35
	c-0.15-0.02-0.18-0.02-0.22,0c-0.04,0.02-0.01,0.06,0.04,0.1c0.18,0.12,0.37,0.23,0.56,0.33c0.58,0.31,1.18,0.55,1.81,0.72
	c3.26,0.9,6.92,0.24,9.37-2.19c1.92-1.91,2.59-4.54,2.59-7.17c0-0.1,0.12-0.16,0.19-0.21c0.5-0.38,0.9-0.82,1.27-1.33
	c0.08-0.11,0.08-0.21,0.08-0.25c0-0.01,0-0.01,0-0.01C16.8,3.17,16.8,3.18,16.74,3.21z"/>
</svg>
