<?xml version="1.0" encoding="utf-8"?>
<!-- Generator: Adobe Illustrator 23.0.1, SVG Export Plug-In . SVG Version: 6.00 Build 0)  -->
<svg version="1.1" id="Layer_1" xmlns="http://www.w3.org/2000/svg" xmlns:xlink="http://www.w3.org/1999/xlink" x="0px" y="0px"
	 viewBox="0 0 165 165" style="enable-background:new 0 0 165 165;" xml:space="preserve">
<style type="text/css">
	.st0{fill:#FFFFFF;}
</style>
<g>
	<path class="st0" d="M160.12,110.35c2.97-8.5,4.59-17.64,4.59-27.14c0-9.51-1.62-18.64-4.59-27.14c-0.07-0.25-0.16-0.5-0.26-0.74
		C148.4,23.52,117.92,0.71,82.21,0.71S16.02,23.52,4.57,55.33c-0.1,0.24-0.19,0.49-0.26,0.74c-2.97,8.5-4.59,17.63-4.59,27.14
		c0,9.5,1.62,18.64,4.59,27.14c0.07,0.25,0.16,0.5,0.26,0.74c11.46,31.81,41.94,54.61,77.65,54.61s66.19-22.81,77.65-54.61
		C159.96,110.86,160.05,110.61,160.12,110.35L160.12,110.35z M82.21,154.93c-3.19,0-8.33-5.77-12.63-18.66
		c-2.07-6.22-3.73-13.37-4.94-21.15h35.13c-1.21,7.78-2.87,14.93-4.94,21.15C90.54,149.16,85.4,154.93,82.21,154.93L82.21,154.93z
		 M63.19,103.12c-0.58-6.4-0.88-13.07-0.88-19.91c0-6.83,0.3-13.5,0.88-19.9h38.05c0.57,6.4,0.88,13.07,0.88,19.9
		c0,6.83-0.3,13.51-0.88,19.91H63.19z M10.5,83.21c0-6.9,0.98-13.58,2.81-19.9h37.84c-0.56,6.53-0.85,13.22-0.85,19.9
		c0,6.68,0.29,13.38,0.85,19.91H13.31C11.48,96.79,10.5,90.12,10.5,83.21L10.5,83.21z M82.21,11.5c3.19,0,8.33,5.77,12.63,18.66
		c2.07,6.22,3.73,13.37,4.94,21.15H64.64c1.21-7.78,2.87-14.93,4.94-21.15C73.88,17.27,79.02,11.5,82.21,11.5L82.21,11.5z
		 M113.27,63.31h37.84c1.83,6.32,2.81,13,2.81,19.9c0,6.91-0.98,13.59-2.81,19.91h-37.84c0.56-6.53,0.84-13.22,0.84-19.91
		C114.11,76.53,113.83,69.84,113.27,63.31L113.27,63.31z M146.42,51.31h-34.53c-2.14-14.72-5.8-27.92-10.93-37.32
		C120.87,19.39,137.37,33.18,146.42,51.31L146.42,51.31z M63.46,13.99c-5.14,9.4-8.8,22.6-10.93,37.32H18
		C27.05,33.18,43.55,19.39,63.46,13.99L63.46,13.99z M18,115.12h34.53c2.14,14.72,5.8,27.92,10.93,37.32
		C43.55,147.03,27.05,133.25,18,115.12L18,115.12z M100.96,152.43c5.14-9.4,8.8-22.6,10.93-37.32h34.53
		C137.37,133.25,120.87,147.03,100.96,152.43L100.96,152.43z M100.96,152.43"/>
</g>
</svg>
